# xmcd
#
# Track frame offsets:
#	150
#	17826
#	31702
#	47829
#	61497
#	76762
#	89103
#	108775
#	122874
#	138933
#	157856
#	177172
#	191257
#	207782
#	224908
#
# Disc length: 3290 seconds
#
# Revision: 0
# Processed by: cddbd v1.5.2PL0 Copyright (c) Steve Scherf et al.
# Submitted via: dBpowerAMP V4.0
#
DISCID=c80cd80f
DTITLE=Various Artist - Drews famous 30 country songs
DYEAR=1900
DGENRE=Country
TTITLE0=Man! I Feel Like A Woman
TTITLE1=I Love A Rainy Night
TTITLE2=Can't Fight The Moonlight
TTITLE3=Elvira
TTITLE4=Independence Day
TTITLE5=Galveston
TTITLE6=Ode To Billy Joe
TTITLE7=God Bless The USA
TTITLE8=Desperado
TTITLE9=Man of Constant Sorrow
TTITLE10=Goodbye Earl
TTITLE11=The Lucky One
TTITLE12=A Boy Named Sue
TTITLE13=Convoy
TTITLE14=The Lighthouse's Tale
EXTD=there is two disc 
EXTT0=
EXTT1=
EXTT2=
EXTT3=
EXTT4=
EXTT5=
EXTT6=
EXTT7=
EXTT8=
EXTT9=
EXTT10=
EXTT11=
EXTT12=
EXTT13=
EXTT14=
PLAYORDER=
